<svg xmlns="http://www.w3.org/2000/svg" width="766.822" height="691.638"><g data-name="Group 9" clip-path="url(&quot;#a&quot;)"><path d="M20.662 652.494v39.142H0v-97.793h42.971c21.325 0 32.803 11.744 32.803 26.843 0 13.13-7.149 20.228-14.211 23.145 4.844 1.785 12.146 6.823 12.146 24.328v4.83c0 6.577.061 14.063 1.407 18.647h-20.04c-1.723-4.258-2.044-11.575-2.044-21.957v-1.433c0-10.693-2.703-15.752-18.46-15.752h-13.91Zm0-16.832h17.73c11.575 0 16.042-4.4 16.042-12.585 0-7.95-5.196-12.401-15.537-12.401H20.662v24.986Z" fill="#fff" fill-rule="evenodd" data-name="Path 4"/><path d="M137.179 593.843h21.146v97.793H137.18v-97.793z" fill="#fff" fill-rule="evenodd" data-name="Rectangle 13"/><path d="m216.208 676.139 53.654-64.964h-51.247v-17.332h75.31v17.159l-51.859 63.306h54.638l-2.651 17.327h-77.845V676.14Z" fill="#fff" fill-rule="evenodd" data-name="Path 5"/><path d="M353.803 593.843h21.142v97.793h-21.142v-97.793z" fill="#fff" fill-rule="evenodd" data-name="Rectangle 14"/><path d="M461.712 611.174H432v-17.327h80.48v17.327h-29.605v80.46h-21.162v-80.46Z" fill="#fff" fill-rule="evenodd" data-name="Path 6"/><path d="m575.843 669.046-7.628 22.59H547.42l33.211-97.793h26.557l34.644 97.793h-22.227l-8.037-22.59h-35.725Zm31.172-17.332c-6.94-20.636-11.366-33.823-13.727-42.609h-.143c-2.407 9.638-7.292 24.981-12.86 42.61h26.73Z" fill="#fff" fill-rule="evenodd" data-name="Path 7"/><path d="M696.963 593.845h21.141v80.46h48.718l-2.417 17.333h-67.442v-97.793Z" fill="#fff" fill-rule="evenodd" data-name="Path 8"/><path d="M396.683 0h-265.45l77.748 77.748L584.384 453.15c48.035-48.034 77.748-114.4 77.748-187.702C662.132 118.847 543.285 0 396.682 0" fill="#fff" fill-rule="evenodd" data-name="Path 9"/><path d="M557.838 479.693 182.434 104.289c-48.034 48.04-77.742 114.4-77.742 187.702 0 146.602 118.847 265.45 265.444 265.45h265.45l-77.748-77.748Z" fill="#fff" fill-rule="evenodd" data-name="Path 10"/></g><defs><clipPath id="a"><path d="M0 0h766.824v691.636H0V0z" data-name="Rectangle 15"/></clipPath></defs></svg>